<?xml version="1.0" encoding="utf-8"?>
<!-- Generator: Adobe Illustrator 21.0.2, SVG Export Plug-In . SVG Version: 6.00 Build 0)  -->
<svg version="1.1" id="Layer_1" xmlns="http://www.w3.org/2000/svg" xmlns:xlink="http://www.w3.org/1999/xlink" x="0px" y="0px"
	 viewBox="0 0 100 100" style="enable-background:new 0 0 100 100;" xml:space="preserve">
<path style="fill: #212121" d="M91.7,71.3c-3.3-3.3-8.8-4.7-13.8-3.6L58.3,48.1l21.2-21.2l0.4,0.4c0.4,0.4,0.9,0.6,1.4,0.6c0.4,0,0.9-0.1,1.3-0.4l11.7-9.6
	c0.4-0.4,0.7-0.9,0.7-1.4c0-0.6-0.2-1.1-0.6-1.5l-9.2-9.2C84.8,5.2,84.2,5,83.7,5c-0.6,0-1.1,0.3-1.4,0.7l-9.6,11.7
	c-0.6,0.8-0.6,1.9,0.1,2.7l0.4,0.4L51.9,41.7L32.3,22.2c1.1-5-0.3-10.5-3.6-13.8c-4.1-4.1-10.8-4.4-16.3-0.9
	c-0.5,0.3-0.8,0.9-0.9,1.5c-0.1,0.6,0.1,1.2,0.6,1.6l7.9,7.9L18.4,20l-7.9-7.9c-0.4-0.4-1-0.6-1.6-0.6c-0.6,0.1-1.1,0.4-1.5,0.9
	c-3.5,5.5-3.1,12.2,0.9,16.3c3.3,3.3,8.8,4.7,13.8,3.6l19.6,19.6l-1.7,1.7l-1.8-1.8c0,0,0,0,0,0l0,0c0,0-0.1,0-0.1-0.1
	c-0.1,0-0.1-0.1-0.2-0.2c0,0-0.1-0.1-0.2-0.1c0,0-0.1-0.1-0.2-0.1c-0.1,0-0.1,0-0.2-0.1c-0.1,0-0.1,0-0.2,0c-0.1,0-0.1,0-0.2,0
	c-0.1,0-0.1,0-0.2,0c-0.1,0-0.1,0-0.2,0c-0.1,0-0.1,0-0.2,0c-0.1,0-0.1,0-0.2,0.1c-0.1,0-0.1,0-0.2,0c-0.1,0-0.1,0.1-0.2,0.1
	c0,0-0.1,0-0.1,0.1l-7.8,5c-0.2,0.1-0.3,0.3-0.5,0.4c0,0-0.1,0.1-0.1,0.1L9.1,75.2c-0.5,0.5-0.7,1.3-0.5,1.9l-3,3
	c-0.8,0.8-0.8,2,0,2.8L17,94.4c0.4,0.4,0.9,0.6,1.4,0.6c0.5,0,1-0.2,1.4-0.6l3-3c0.2,0,0.3,0.1,0.5,0.1c0.5,0,1-0.2,1.4-0.6L43,72.7
	c0,0,0.1-0.1,0.1-0.2c0.2-0.1,0.3-0.3,0.4-0.5l5-7.8l0,0c0,0,0-0.1,0.1-0.1c0-0.1,0.1-0.1,0.1-0.2c0-0.1,0-0.1,0.1-0.2
	c0-0.1,0-0.1,0.1-0.2c0-0.1,0-0.1,0-0.2c0-0.1,0-0.1,0-0.2s0-0.1,0-0.2c0-0.1,0-0.1,0-0.2c0-0.1,0-0.1-0.1-0.2c0-0.1,0-0.1-0.1-0.2
	c0-0.1-0.1-0.1-0.1-0.2c0,0,0-0.1-0.1-0.2c0-0.1-0.1-0.1-0.2-0.2c0,0,0-0.1-0.1-0.1l0,0c0,0,0,0,0,0l-1.8-1.8l1.7-1.7l19.6,19.6
	c-1.1,5,0.3,10.5,3.6,13.8c2.2,2.2,5.2,3.3,8.3,3.3c2.6,0,5.4-0.8,7.9-2.4c0.5-0.3,0.8-0.9,0.9-1.5c0.1-0.6-0.1-1.2-0.6-1.6L80,81.6
	l1.6-1.6l7.9,7.9c0.4,0.4,1,0.6,1.6,0.6c0.6-0.1,1.1-0.4,1.5-0.9C96.1,82.1,95.7,75.4,91.7,71.3z M83.9,10l6.1,6.1l-8.6,7l-4.5-4.5
	L83.9,10z M75.9,23.3l0.7,0.7L55.4,45.3l-0.7-0.7L75.9,23.3z M28.8,61.3l1.4,1.4L14.8,78.1l-1.4-1.4L28.8,61.3z M33,65.5l1.4,1.4
	L19.1,82.3l-1.4-1.4L33,65.5z M18.4,90.2l-8.5-8.5l1.4-1.4l8.5,8.5L18.4,90.2z M23.4,86.6l-1.4-1.4l15.4-15.4l1.4,1.4L23.4,86.6z
	 M41.3,68.1l-9.4-9.4l4.7-3l7.7,7.7L41.3,68.1z M43.6,57.1l-0.7-0.7l1.7-1.7l0.7,0.7L43.6,57.1z M90.4,83.2L83,75.8
	c-0.8-0.8-2-0.8-2.8,0l-4.4,4.4c-0.8,0.8-0.8,2,0,2.8l7.4,7.4c-3.3,1.2-6.8,0.7-9-1.5c-2.5-2.5-3.5-7.2-2.3-11c0.2-0.7,0-1.5-0.5-2
	L24.2,28.7c-0.4-0.4-0.9-0.6-1.4-0.6c-0.2,0-0.4,0-0.6,0.1c-3.8,1.2-8.5,0.2-11-2.3c-2.2-2.2-2.7-5.7-1.5-9l7.4,7.4
	c0.8,0.8,2,0.8,2.8,0l4.4-4.4c0.8-0.8,0.8-2,0-2.8l-7.4-7.4c3.3-1.2,6.8-0.7,9,1.5c2.5,2.5,3.5,7.2,2.3,11c-0.2,0.7,0,1.5,0.5,2
	l47.2,47.2c0.5,0.5,1.3,0.7,2,0.5c3.8-1.2,8.5-0.2,11,2.3C91.1,76.3,91.6,79.8,90.4,83.2z"/>
</svg>
