<?xml version="1.0" encoding="iso-8859-1"?>
<!-- Generator: Adobe Illustrator 19.0.0, SVG Export Plug-In . SVG Version: 6.00 Build 0)  -->
<svg version="1.1" id="Capa_1" xmlns="http://www.w3.org/2000/svg" xmlns:xlink="http://www.w3.org/1999/xlink" x="0px" y="0px"
	 viewBox="0 0 480 480" style="enable-background:new 0 0 480 480;" xml:space="preserve">
<g>
	<g>
		<g>
			<path d="M456,192h-1.472c0.948-2.562,1.445-5.268,1.472-8v-16c-0.021-5.923-2.245-11.627-6.24-16
				c3.995-4.373,6.219-10.077,6.24-16v-16c-0.044-10.855-7.37-20.329-17.864-23.104c22.63-21.016,23.939-56.398,2.923-79.029
				C430.459,6.453,415.578-0.023,400,0H48C34.745,0,24,10.745,24,24v16c0.021,5.923,2.245,11.627,6.24,16
				c-3.995,4.373-6.219,10.077-6.24,16v16c0.044,10.855,7.37,20.329,17.864,23.104c-22.597,20.942-23.939,56.237-2.997,78.834
				c0.653,0.705,1.324,1.392,2.013,2.062H24c-13.255,0-24,10.745-24,24v16c0.051,10.556,6.993,19.839,17.104,22.872l39.024,218.536
				c0.682,3.814,3.998,6.591,7.872,6.592h352c3.874-0.002,7.19-2.779,7.872-6.592l39.024-218.536
				C473.007,251.839,479.949,242.556,480,232v-16C480,202.745,469.255,192,456,192z M40,88V72c0-4.418,3.582-8,8-8h336V48H48
				c-4.418,0-8-3.582-8-8V24c0-4.418,3.582-8,8-8h352c22.091,0,40,17.909,40,40s-17.909,40-40,40H48C43.582,96,40,92.418,40,88z
				 M40,152c0.026-22.08,17.92-39.974,40-40h352c4.418,0,8,3.582,8,8v16c0,4.418-3.582,8-8,8H96v16h336c4.418,0,8,3.582,8,8v16
				c0,4.418-3.582,8-8,8H80C57.92,191.974,40.026,174.081,40,152z M409.304,464H70.696L33.552,256h412.896L409.304,464z M464,232
				c0,4.418-3.582,8-8,8H24c-4.418,0-8-3.582-8-8v-16c0-4.418,3.582-8,8-8h432c4.418,0,8,3.582,8,8V232z"/>
			<rect x="232" y="288" width="16" height="144" style="fill: blue"/>
			<rect x="296" y="288" width="16" height="144" style="fill: blue"/>
			<rect x="360" y="288" width="16" height="144" style="fill: blue"/>
			<rect x="168" y="288" width="16" height="144" style="fill: blue"/>
			<rect x="104" y="288" width="16" height="144" style="fill: blue"/>
		</g>
	</g>
</g>
<g>
</g>
<g>
</g>
<g>
</g>
<g>
</g>
<g>
</g>
<g>
</g>
<g>
</g>
<g>
</g>
<g>
</g>
<g>
</g>
<g>
</g>
<g>
</g>
<g>
</g>
<g>
</g>
<g>
</g>
</svg>
