<?xml version="1.0" encoding="iso-8859-1"?>
<!-- Generator: Adobe Illustrator 19.0.0, SVG Export Plug-In . SVG Version: 6.00 Build 0)  -->
<svg version="1.1" id="Capa_1" xmlns="http://www.w3.org/2000/svg" xmlns:xlink="http://www.w3.org/1999/xlink" x="0px" y="0px"
	 viewBox="0 0 512 512" style="enable-background:new 0 0 512 512;" xml:space="preserve">
<rect x="44.138" style="fill:#FFC117;" width="423.724" height="88.276"/>
<rect x="273.655" style="fill:#FDAD2A;" width="194.207" height="88.276"/>
<rect x="44.138" y="88.276" style="fill:#E6E6E6;" width="423.724" height="423.724"/>
<path style="fill:#CCCCCC;" d="M431.139,88.276C415.567,295.998,264.104,459.034,79.448,459.034c-11.802,0-23.587-0.68-35.31-2.03
	V512h423.724V88.276H431.139z"/>
<rect x="158.897" y="35.31" style="fill:#51ABD8;" width="17.655" height="17.655"/>
<g>
	<rect x="70.621" y="467.862" style="fill:#808080;" width="17.655" height="17.655"/>
	<rect x="423.724" y="467.862" style="fill:#808080;" width="17.655" height="17.655"/>
	<rect x="423.724" y="114.759" style="fill:#808080;" width="17.655" height="17.655"/>
	<rect x="70.621" y="114.759" style="fill:#808080;" width="52.966" height="17.655"/>
	<rect x="70.621" y="150.069" style="fill:#808080;" width="17.655" height="17.655"/>
</g>
<g>
	<rect x="194.207" y="35.31" style="fill:#51ABD8;" width="17.655" height="17.655"/>
	<rect x="229.517" y="35.31" style="fill:#51ABD8;" width="17.655" height="17.655"/>
</g>
<g>
	<rect x="79.448" style="fill:#E97424;" width="52.966" height="52.966"/>
	<rect x="300.138" y="35.31" style="fill:#E97424;" width="141.241" height="17.655"/>
</g>
<path style="fill:#E7F4FD;" d="M216.276,300.138c17.064,17.064,44.729,17.064,61.793,0c15.501-15.448,40.068-16.984,57.379-3.602
	v-31.709l25.821-10.328c-25.079-58.174-92.557-85.001-150.731-59.922c-46.354,19.986-74.196,67.928-68.582,118.087l12.526-12.526
	C171.546,283.074,199.212,283.074,216.276,300.138z"/>
<path style="fill:#51ABD8;" d="M335.448,296.536c-17.311-13.383-41.878-11.847-57.379,3.602c-17.064,17.064-44.729,17.064-61.793,0
	c-17.064-17.064-44.729-17.064-61.793,0l-12.526,12.526c6.974,62.994,63.691,108.412,126.685,101.438
	c40.889-4.529,76.226-30.596,92.628-68.326l-25.821-10.328V296.536z"/>
<path style="fill:#1588C9;" d="M256,141.241c-87.755,0-158.897,71.142-158.897,158.897S168.245,459.034,256,459.034
	s158.897-71.142,158.897-158.897S343.755,141.241,256,141.241z M361.269,345.777c-25.203,58.156-92.778,84.86-150.934,59.657
	s-84.86-92.778-59.657-150.934s92.778-84.86,150.934-59.657c26.739,11.591,48.066,32.918,59.657,59.657l-25.821,10.328v70.621
	L361.269,345.777z"/>
<rect x="361.931" y="291.31" style="fill:#E97424;" width="17.655" height="17.655"/>
<g>
</g>
<g>
</g>
<g>
</g>
<g>
</g>
<g>
</g>
<g>
</g>
<g>
</g>
<g>
</g>
<g>
</g>
<g>
</g>
<g>
</g>
<g>
</g>
<g>
</g>
<g>
</g>
<g>
</g>
</svg>
