<?xml version="1.0"?>
<svg xmlns="http://www.w3.org/2000/svg" xmlns:xlink="http://www.w3.org/1999/xlink" version="1.1" viewBox="0 0 252 252" width="64px" height="64px"><g fill="none" fill-rule="nonzero" stroke="none" stroke-width="1" stroke-linecap="butt" stroke-linejoin="miter" stroke-miterlimit="10" stroke-dasharray="" stroke-dashoffset="0" font-family="none" font-weight="none" font-size="none" text-anchor="none" style="mix-blend-mode: normal"><path d="M0,252v-252h252v252z" fill="none"/><g id="&#x421;&#x43B;&#x43E;&#x439;_1" fill="#ffffff"><path d="M196.875,165.375h-15.75c-2.1735,0 -3.9375,1.764 -3.9375,3.9375v27.5625h23.625v-27.5625c0,-2.1735 -1.764,-3.9375 -3.9375,-3.9375z"/><rect x="25" y="41" transform="scale(3.9375,3.9375)" width="2" height="4"/><rect x="19" y="30" transform="scale(3.9375,3.9375)" width="12" height="2"/><path d="M220.5,126v-7.875c0,-4.34306 -3.53194,-7.875 -7.875,-7.875h-47.25v-7.875c4.34306,0 7.875,-3.53194 7.875,-7.875v-7.875c0,-4.34306 -3.53194,-7.875 -7.875,-7.875h-1.50412l-13.57256,-27.14906c-1.34663,-2.68144 -4.04381,-4.35094 -7.04812,-4.35094h-89.62538c-3.00431,0 -5.7015,1.6695 -7.05206,4.35488l-13.56862,27.14513h-1.50413c-4.34306,0 -7.875,3.53194 -7.875,7.875v7.875c0,4.34306 3.53194,7.875 7.875,7.875v94.5c0,4.34306 3.53194,7.875 7.875,7.875h35.4375h47.25h35.4375h7.875h47.25c4.34306,0 7.875,-3.53194 7.875,-7.875v-47.25c4.34306,0 7.875,-3.53194 7.875,-7.875v-7.875c0,-4.34306 -3.53194,-7.875 -7.875,-7.875zM212.625,118.125v7.875h-47.25v-7.875zM53.62481,55.125h89.62538l11.81644,23.625h-113.25825zM31.5,86.625h133.875v7.875h-133.875zM157.5,102.375v23.625v15.75v7.875v15.75h-15.75v7.875h15.75v7.875h-35.4375v-35.4375c0,-6.51262 -5.29987,-11.8125 -11.8125,-11.8125h-23.625c-6.51262,0 -11.8125,5.29988 -11.8125,11.8125v35.4375h-35.4375v-7.875h15.75v-7.875h-15.75v-63zM39.375,196.875v-7.875h35.4375v7.875zM82.6875,196.875v-51.1875c0,-2.1735 1.764,-3.9375 3.9375,-3.9375h23.625c2.1735,0 3.9375,1.764 3.9375,3.9375v51.1875zM122.0625,196.875v-7.875h35.4375v7.875zM212.625,196.875h-47.25v-47.25h47.25zM220.5,141.75h-55.125v-7.875h55.125z"/></g></g></svg>
